<svg width="797" height="785" viewBox="0 0 797 785" fill="none" xmlns="http://www.w3.org/2000/svg">
<g opacity="0.8">
<rect y="-163.983" width="15" height="1396" transform="rotate(-15 0 -163.983)" fill="white"/>
<rect x="24.1484" y="-170.454" width="15" height="1396" transform="rotate(-15 24.1484 -170.454)" fill="white"/>
<rect x="48.2969" y="-176.924" width="15" height="1396" transform="rotate(-15 48.2969 -176.924)" fill="white"/>
<rect x="72.4453" y="-183.395" width="15" height="1396" transform="rotate(-15 72.4453 -183.395)" fill="white"/>
<rect x="96.5938" y="-189.865" width="15" height="1396" transform="rotate(-15 96.5938 -189.865)" fill="white"/>
<rect x="120.742" y="-196.336" width="15" height="1396" transform="rotate(-15 120.742 -196.336)" fill="white"/>
<rect x="144.891" y="-202.806" width="15" height="1396" transform="rotate(-15 144.891 -202.806)" fill="white"/>
<rect x="169.035" y="-209.277" width="15" height="1396" transform="rotate(-15 169.035 -209.277)" fill="white"/>
<rect x="193.184" y="-215.747" width="15" height="1396" transform="rotate(-15 193.184 -215.747)" fill="white"/>
<rect x="217.332" y="-222.218" width="15" height="1396" transform="rotate(-15 217.332 -222.218)" fill="white"/>
<rect x="241.48" y="-228.688" width="15" height="1396" transform="rotate(-15 241.48 -228.688)" fill="white"/>
<rect x="265.629" y="-235.159" width="15" height="1396" transform="rotate(-15 265.629 -235.159)" fill="white"/>
<rect x="289.777" y="-241.629" width="15" height="1396" transform="rotate(-15 289.777 -241.629)" fill="white"/>
<rect x="313.926" y="-248.1" width="15" height="1396" transform="rotate(-15 313.926 -248.1)" fill="white"/>
<rect x="338.074" y="-254.57" width="15" height="1396" transform="rotate(-15 338.074 -254.57)" fill="white"/>
<rect x="362.223" y="-261.041" width="15" height="1396" transform="rotate(-15 362.223 -261.041)" fill="white"/>
<rect x="386.371" y="-267.511" width="15" height="1396" transform="rotate(-15 386.371 -267.511)" fill="white"/>
<rect x="410.52" y="-273.981" width="15" height="1396" transform="rotate(-15 410.52 -273.981)" fill="white"/>
<rect x="434.668" y="-280.452" width="15" height="1396" transform="rotate(-15 434.668 -280.452)" fill="white"/>
<rect x="458.816" y="-286.922" width="15" height="1396" transform="rotate(-15 458.816 -286.922)" fill="white"/>
<rect x="482.965" y="-293.393" width="15" height="1396" transform="rotate(-15 482.965 -293.393)" fill="white"/>
<rect x="507.109" y="-299.863" width="15" height="1396" transform="rotate(-15 507.109 -299.863)" fill="white"/>
<rect x="531.258" y="-306.334" width="15" height="1396" transform="rotate(-15 531.258 -306.334)" fill="white"/>
<rect x="555.406" y="-312.804" width="15" height="1396" transform="rotate(-15 555.406 -312.804)" fill="white"/>
<rect x="579.555" y="-319.275" width="15" height="1396" transform="rotate(-15 579.555 -319.275)" fill="white"/>
<rect x="603.703" y="-325.745" width="15" height="1396" transform="rotate(-15 603.703 -325.745)" fill="white"/>
<rect x="627.852" y="-332.216" width="15" height="1396" transform="rotate(-15 627.852 -332.216)" fill="white"/>
<rect x="652" y="-338.686" width="15" height="1396" transform="rotate(-15 652 -338.686)" fill="white"/>
<rect x="676.148" y="-345.157" width="15" height="1396" transform="rotate(-15 676.148 -345.157)" fill="white"/>
<rect x="700.297" y="-351.627" width="15" height="1396" transform="rotate(-15 700.297 -351.627)" fill="white"/>
<rect x="724.445" y="-358.098" width="15" height="1396" transform="rotate(-15 724.445 -358.098)" fill="white"/>
<rect x="748.594" y="-364.568" width="15" height="1396" transform="rotate(-15 748.594 -364.568)" fill="white"/>
</g>
</svg>
