<svg width="215" height="126" viewBox="0 0 215 126" fill="none" xmlns="http://www.w3.org/2000/svg">
<path d="M6.42 95C6.42 92.3 6.63 89.87 7.05 87.71C7.47 85.55 8.19 83.54 9.21 81.68C10.29 79.82 11.73 78.08 13.53 76.46C15.39 74.78 17.73 73.16 20.55 71.6C23.01 70.28 25.17 69.14 27.03 68.18C28.89 67.16 30.45 66.23 31.71 65.39C33.03 64.55 34.02 63.71 34.68 62.87C35.34 61.97 35.67 60.95 35.67 59.81C35.67 58.61 35.34 57.53 34.68 56.57C34.02 55.55 33.09 54.74 31.89 54.14C30.69 53.54 29.19 53.24 27.39 53.24C25.95 53.24 24.6 53.42 23.34 53.78C22.14 54.14 21 54.65 19.92 55.31C18.9 55.97 17.94 56.72 17.04 57.56C16.14 58.34 15.33 59.18 14.61 60.08L6.96 51.26C7.8 50.42 8.91 49.52 10.29 48.56C11.73 47.54 13.41 46.61 15.33 45.77C17.31 44.87 19.47 44.15 21.81 43.61C24.21 43.01 26.76 42.71 29.46 42.71C33.54 42.71 37.02 43.37 39.9 44.69C42.78 45.95 44.97 47.72 46.47 50C48.03 52.28 48.81 54.95 48.81 58.01C48.81 60.11 48.42 61.97 47.64 63.59C46.86 65.21 45.87 66.65 44.67 67.91C43.47 69.11 42.15 70.19 40.71 71.15C39.33 72.11 37.98 72.95 36.66 73.67C34.8 74.63 33.12 75.53 31.62 76.37C30.12 77.15 28.8 77.96 27.66 78.8C26.52 79.58 25.5 80.39 24.6 81.23C23.76 82.07 23.01 83.03 22.35 84.11H49.8V95H6.42ZM104.651 68.63C104.651 73.91 103.631 78.62 101.591 82.76C99.6108 86.84 96.8508 90.05 93.3108 92.39C89.8308 94.73 85.8708 95.9 81.4308 95.9C76.9908 95.9 73.0008 94.73 69.4608 92.39C65.9808 90.05 63.2208 86.84 61.1808 82.76C59.2008 78.62 58.2108 73.91 58.2108 68.63C58.2108 63.35 59.2008 58.67 61.1808 54.59C63.2208 50.45 65.9808 47.21 69.4608 44.87C73.0008 42.47 76.9908 41.27 81.4308 41.27C85.8708 41.27 89.8308 42.47 93.3108 44.87C96.8508 47.21 99.6108 50.45 101.591 54.59C103.631 58.67 104.651 63.35 104.651 68.63ZM92.5008 68.63C92.5008 65.39 92.0208 62.57 91.0608 60.17C90.1608 57.71 88.8708 55.79 87.1908 54.41C85.5108 53.03 83.5908 52.34 81.4308 52.34C79.2108 52.34 77.2608 53.03 75.5808 54.41C73.9008 55.79 72.5808 57.71 71.6208 60.17C70.7208 62.57 70.2708 65.39 70.2708 68.63C70.2708 71.87 70.7208 74.69 71.6208 77.09C72.5808 79.49 73.9008 81.38 75.5808 82.76C77.2608 84.14 79.2108 84.83 81.4308 84.83C83.5908 84.83 85.4808 84.14 87.1008 82.76C88.7808 81.38 90.1008 79.49 91.0608 77.09C92.0208 74.63 92.5008 71.81 92.5008 68.63ZM159.934 68.63C159.934 73.91 158.914 78.62 156.874 82.76C154.894 86.84 152.134 90.05 148.594 92.39C145.114 94.73 141.154 95.9 136.714 95.9C132.274 95.9 128.284 94.73 124.744 92.39C121.264 90.05 118.504 86.84 116.464 82.76C114.484 78.62 113.494 73.91 113.494 68.63C113.494 63.35 114.484 58.67 116.464 54.59C118.504 50.45 121.264 47.21 124.744 44.87C128.284 42.47 132.274 41.27 136.714 41.27C141.154 41.27 145.114 42.47 148.594 44.87C152.134 47.21 154.894 50.45 156.874 54.59C158.914 58.67 159.934 63.35 159.934 68.63ZM147.784 68.63C147.784 65.39 147.304 62.57 146.344 60.17C145.444 57.71 144.154 55.79 142.474 54.41C140.794 53.03 138.874 52.34 136.714 52.34C134.494 52.34 132.544 53.03 130.864 54.41C129.184 55.79 127.864 57.71 126.904 60.17C126.004 62.57 125.554 65.39 125.554 68.63C125.554 71.87 126.004 74.69 126.904 77.09C127.864 79.49 129.184 81.38 130.864 82.76C132.544 84.14 134.494 84.83 136.714 84.83C138.874 84.83 140.764 84.14 142.384 82.76C144.064 81.38 145.384 79.49 146.344 77.09C147.304 74.63 147.784 71.81 147.784 68.63ZM187.947 108.41C183.327 108.41 179.157 107.42 175.437 105.44C171.717 103.46 168.897 100.76 166.977 97.34L173.907 90.14C175.587 92.48 177.687 94.34 180.207 95.72C182.727 97.1 185.337 97.79 188.037 97.79C190.197 97.79 192.087 97.34 193.707 96.44C195.387 95.54 196.707 94.28 197.667 92.66C198.627 91.04 199.107 89.18 199.107 87.08C199.107 84.98 198.657 83.15 197.757 81.59C196.857 80.03 195.627 78.83 194.067 77.99C192.507 77.09 190.737 76.64 188.757 76.64C186.777 76.64 184.917 77.09 183.177 77.99C181.497 78.83 180.147 80.06 179.127 81.68H168.597L175.977 43.61H207.477V54.59H184.707L182.097 68.9C182.877 68.18 183.957 67.58 185.337 67.1C186.717 66.56 188.427 66.29 190.467 66.29C194.487 66.29 198.087 67.16 201.267 68.9C204.447 70.64 206.937 73.07 208.737 76.19C210.537 79.25 211.437 82.79 211.437 86.81C211.437 91.07 210.417 94.82 208.377 98.06C206.337 101.36 203.547 103.91 200.007 105.71C196.467 107.51 192.447 108.41 187.947 108.41Z" fill="url(#paint0_linear_100_6249)"/>
<path d="M3.42 95C3.42 92.3 3.63 89.87 4.05 87.71C4.47 85.55 5.19 83.54 6.21 81.68C7.29 79.82 8.73 78.08 10.53 76.46C12.39 74.78 14.73 73.16 17.55 71.6C20.01 70.28 22.17 69.14 24.03 68.18C25.89 67.16 27.45 66.23 28.71 65.39C30.03 64.55 31.02 63.71 31.68 62.87C32.34 61.97 32.67 60.95 32.67 59.81C32.67 58.61 32.34 57.53 31.68 56.57C31.02 55.55 30.09 54.74 28.89 54.14C27.69 53.54 26.19 53.24 24.39 53.24C22.95 53.24 21.6 53.42 20.34 53.78C19.14 54.14 18 54.65 16.92 55.31C15.9 55.97 14.94 56.72 14.04 57.56C13.14 58.34 12.33 59.18 11.61 60.08L3.96 51.26C4.8 50.42 5.91 49.52 7.29 48.56C8.73 47.54 10.41 46.61 12.33 45.77C14.31 44.87 16.47 44.15 18.81 43.61C21.21 43.01 23.76 42.71 26.46 42.71C30.54 42.71 34.02 43.37 36.9 44.69C39.78 45.95 41.97 47.72 43.47 50C45.03 52.28 45.81 54.95 45.81 58.01C45.81 60.11 45.42 61.97 44.64 63.59C43.86 65.21 42.87 66.65 41.67 67.91C40.47 69.11 39.15 70.19 37.71 71.15C36.33 72.11 34.98 72.95 33.66 73.67C31.8 74.63 30.12 75.53 28.62 76.37C27.12 77.15 25.8 77.96 24.66 78.8C23.52 79.58 22.5 80.39 21.6 81.23C20.76 82.07 20.01 83.03 19.35 84.11H46.8V95H3.42ZM101.651 68.63C101.651 73.91 100.631 78.62 98.5908 82.76C96.6108 86.84 93.8508 90.05 90.3108 92.39C86.8308 94.73 82.8708 95.9 78.4308 95.9C73.9908 95.9 70.0008 94.73 66.4608 92.39C62.9808 90.05 60.2208 86.84 58.1808 82.76C56.2008 78.62 55.2108 73.91 55.2108 68.63C55.2108 63.35 56.2008 58.67 58.1808 54.59C60.2208 50.45 62.9808 47.21 66.4608 44.87C70.0008 42.47 73.9908 41.27 78.4308 41.27C82.8708 41.27 86.8308 42.47 90.3108 44.87C93.8508 47.21 96.6108 50.45 98.5908 54.59C100.631 58.67 101.651 63.35 101.651 68.63ZM89.5008 68.63C89.5008 65.39 89.0208 62.57 88.0608 60.17C87.1608 57.71 85.8708 55.79 84.1908 54.41C82.5108 53.03 80.5908 52.34 78.4308 52.34C76.2108 52.34 74.2608 53.03 72.5808 54.41C70.9008 55.79 69.5808 57.71 68.6208 60.17C67.7208 62.57 67.2708 65.39 67.2708 68.63C67.2708 71.87 67.7208 74.69 68.6208 77.09C69.5808 79.49 70.9008 81.38 72.5808 82.76C74.2608 84.14 76.2108 84.83 78.4308 84.83C80.5908 84.83 82.4808 84.14 84.1008 82.76C85.7808 81.38 87.1008 79.49 88.0608 77.09C89.0208 74.63 89.5008 71.81 89.5008 68.63ZM156.934 68.63C156.934 73.91 155.914 78.62 153.874 82.76C151.894 86.84 149.134 90.05 145.594 92.39C142.114 94.73 138.154 95.9 133.714 95.9C129.274 95.9 125.284 94.73 121.744 92.39C118.264 90.05 115.504 86.84 113.464 82.76C111.484 78.62 110.494 73.91 110.494 68.63C110.494 63.35 111.484 58.67 113.464 54.59C115.504 50.45 118.264 47.21 121.744 44.87C125.284 42.47 129.274 41.27 133.714 41.27C138.154 41.27 142.114 42.47 145.594 44.87C149.134 47.21 151.894 50.45 153.874 54.59C155.914 58.67 156.934 63.35 156.934 68.63ZM144.784 68.63C144.784 65.39 144.304 62.57 143.344 60.17C142.444 57.71 141.154 55.79 139.474 54.41C137.794 53.03 135.874 52.34 133.714 52.34C131.494 52.34 129.544 53.03 127.864 54.41C126.184 55.79 124.864 57.71 123.904 60.17C123.004 62.57 122.554 65.39 122.554 68.63C122.554 71.87 123.004 74.69 123.904 77.09C124.864 79.49 126.184 81.38 127.864 82.76C129.544 84.14 131.494 84.83 133.714 84.83C135.874 84.83 137.764 84.14 139.384 82.76C141.064 81.38 142.384 79.49 143.344 77.09C144.304 74.63 144.784 71.81 144.784 68.63ZM184.947 108.41C180.327 108.41 176.157 107.42 172.437 105.44C168.717 103.46 165.897 100.76 163.977 97.34L170.907 90.14C172.587 92.48 174.687 94.34 177.207 95.72C179.727 97.1 182.337 97.79 185.037 97.79C187.197 97.79 189.087 97.34 190.707 96.44C192.387 95.54 193.707 94.28 194.667 92.66C195.627 91.04 196.107 89.18 196.107 87.08C196.107 84.98 195.657 83.15 194.757 81.59C193.857 80.03 192.627 78.83 191.067 77.99C189.507 77.09 187.737 76.64 185.757 76.64C183.777 76.64 181.917 77.09 180.177 77.99C178.497 78.83 177.147 80.06 176.127 81.68H165.597L172.977 43.61H204.477V54.59H181.707L179.097 68.9C179.877 68.18 180.957 67.58 182.337 67.1C183.717 66.56 185.427 66.29 187.467 66.29C191.487 66.29 195.087 67.16 198.267 68.9C201.447 70.64 203.937 73.07 205.737 76.19C207.537 79.25 208.437 82.79 208.437 86.81C208.437 91.07 207.417 94.82 205.377 98.06C203.337 101.36 200.547 103.91 197.007 105.71C193.467 107.51 189.447 108.41 184.947 108.41Z" fill="url(#paint1_linear_100_6249)"/>
<defs>
<linearGradient id="paint0_linear_100_6249" x1="109" y1="0" x2="109" y2="126" gradientUnits="userSpaceOnUse">
<stop stop-color="#289855"/>
<stop offset="1" stop-color="#15753F"/>
</linearGradient>
<linearGradient id="paint1_linear_100_6249" x1="106" y1="0" x2="106" y2="126" gradientUnits="userSpaceOnUse">
<stop stop-color="#3BB96D"/>
<stop offset="1" stop-color="#279A59"/>
</linearGradient>
</defs>
</svg>
