<svg width="207" height="126" viewBox="0 0 207 126" fill="none" xmlns="http://www.w3.org/2000/svg">
<path d="M6.42 95C6.42 92.3 6.63 89.87 7.05 87.71C7.47 85.55 8.19 83.54 9.21 81.68C10.29 79.82 11.73 78.08 13.53 76.46C15.39 74.78 17.73 73.16 20.55 71.6C23.01 70.28 25.17 69.14 27.03 68.18C28.89 67.16 30.45 66.23 31.71 65.39C33.03 64.55 34.02 63.71 34.68 62.87C35.34 61.97 35.67 60.95 35.67 59.81C35.67 58.61 35.34 57.53 34.68 56.57C34.02 55.55 33.09 54.74 31.89 54.14C30.69 53.54 29.19 53.24 27.39 53.24C25.95 53.24 24.6 53.42 23.34 53.78C22.14 54.14 21 54.65 19.92 55.31C18.9 55.97 17.94 56.72 17.04 57.56C16.14 58.34 15.33 59.18 14.61 60.08L6.96 51.26C7.8 50.42 8.91 49.52 10.29 48.56C11.73 47.54 13.41 46.61 15.33 45.77C17.31 44.87 19.47 44.15 21.81 43.61C24.21 43.01 26.76 42.71 29.46 42.71C33.54 42.71 37.02 43.37 39.9 44.69C42.78 45.95 44.97 47.72 46.47 50C48.03 52.28 48.81 54.95 48.81 58.01C48.81 60.11 48.42 61.97 47.64 63.59C46.86 65.21 45.87 66.65 44.67 67.91C43.47 69.11 42.15 70.19 40.71 71.15C39.33 72.11 37.98 72.95 36.66 73.67C34.8 74.63 33.12 75.53 31.62 76.37C30.12 77.15 28.8 77.96 27.66 78.8C26.52 79.58 25.5 80.39 24.6 81.23C23.76 82.07 23.01 83.03 22.35 84.11H49.8V95H6.42ZM104.651 68.63C104.651 73.91 103.631 78.62 101.591 82.76C99.6108 86.84 96.8508 90.05 93.3108 92.39C89.8308 94.73 85.8708 95.9 81.4308 95.9C76.9908 95.9 73.0008 94.73 69.4608 92.39C65.9808 90.05 63.2208 86.84 61.1808 82.76C59.2008 78.62 58.2108 73.91 58.2108 68.63C58.2108 63.35 59.2008 58.67 61.1808 54.59C63.2208 50.45 65.9808 47.21 69.4608 44.87C73.0008 42.47 76.9908 41.27 81.4308 41.27C85.8708 41.27 89.8308 42.47 93.3108 44.87C96.8508 47.21 99.6108 50.45 101.591 54.59C103.631 58.67 104.651 63.35 104.651 68.63ZM92.5008 68.63C92.5008 65.39 92.0208 62.57 91.0608 60.17C90.1608 57.71 88.8708 55.79 87.1908 54.41C85.5108 53.03 83.5908 52.34 81.4308 52.34C79.2108 52.34 77.2608 53.03 75.5808 54.41C73.9008 55.79 72.5808 57.71 71.6208 60.17C70.7208 62.57 70.2708 65.39 70.2708 68.63C70.2708 71.87 70.7208 74.69 71.6208 77.09C72.5808 79.49 73.9008 81.38 75.5808 82.76C77.2608 84.14 79.2108 84.83 81.4308 84.83C83.5908 84.83 85.4808 84.14 87.1008 82.76C88.7808 81.38 90.1008 79.49 91.0608 77.09C92.0208 74.63 92.5008 71.81 92.5008 68.63ZM151.384 84.11V95H114.844V84.11H127.624V56.84C127.084 57.56 126.244 58.31 125.104 59.09C123.964 59.81 122.674 60.5 121.234 61.16C119.794 61.82 118.354 62.36 116.914 62.78C115.474 63.2 114.184 63.41 113.044 63.41V52.16C114.124 52.16 115.414 51.83 116.914 51.17C118.474 50.45 120.004 49.61 121.504 48.65C123.064 47.69 124.384 46.76 125.464 45.86C126.604 44.9 127.324 44.15 127.624 43.61H139.954V84.11H151.384ZM156.437 65.84C156.437 69.86 157.397 73.49 159.317 76.73C161.297 79.91 163.967 82.46 167.327 84.38C170.747 86.24 174.527 87.17 178.667 87.17C180.707 87.17 182.567 86.9 184.247 86.36C185.987 85.76 187.517 84.92 188.837 83.84C190.217 82.76 191.297 81.53 192.077 80.15C192.017 83.99 191.417 87.29 190.277 90.05C189.197 92.75 187.667 94.82 185.687 96.26C183.767 97.7 181.457 98.42 178.757 98.42C176.117 98.42 173.627 97.76 171.287 96.44C169.007 95.18 167.147 93.44 165.707 91.22L158.777 98.78C161.117 102.02 163.997 104.51 167.417 106.25C170.837 107.99 174.557 108.86 178.577 108.86C183.617 108.86 187.997 107.48 191.717 104.72C195.437 101.96 198.287 97.91 200.267 92.57C202.307 87.23 203.327 80.69 203.327 72.95C203.327 66.77 202.367 61.52 200.447 57.2C198.527 52.82 195.797 49.46 192.257 47.12C188.777 44.78 184.607 43.61 179.747 43.61C175.367 43.61 171.407 44.6 167.867 46.58C164.327 48.56 161.537 51.23 159.497 54.59C157.457 57.95 156.437 61.7 156.437 65.84ZM179.747 53.78C181.847 53.78 183.797 54.35 185.597 55.49C187.397 56.57 188.837 58.04 189.917 59.9C190.997 61.7 191.537 63.68 191.537 65.84C191.537 68 190.997 69.98 189.917 71.78C188.837 73.52 187.397 74.93 185.597 76.01C183.857 77.03 181.907 77.54 179.747 77.54C177.587 77.54 175.607 77.03 173.807 76.01C172.007 74.93 170.567 73.52 169.487 71.78C168.467 69.98 167.957 68 167.957 65.84C167.957 63.62 168.497 61.61 169.577 59.81C170.657 58.01 172.097 56.57 173.897 55.49C175.697 54.35 177.647 53.78 179.747 53.78Z" fill="url(#paint0_linear_100_6239)"/>
<path d="M3.42 95C3.42 92.3 3.63 89.87 4.05 87.71C4.47 85.55 5.19 83.54 6.21 81.68C7.29 79.82 8.73 78.08 10.53 76.46C12.39 74.78 14.73 73.16 17.55 71.6C20.01 70.28 22.17 69.14 24.03 68.18C25.89 67.16 27.45 66.23 28.71 65.39C30.03 64.55 31.02 63.71 31.68 62.87C32.34 61.97 32.67 60.95 32.67 59.81C32.67 58.61 32.34 57.53 31.68 56.57C31.02 55.55 30.09 54.74 28.89 54.14C27.69 53.54 26.19 53.24 24.39 53.24C22.95 53.24 21.6 53.42 20.34 53.78C19.14 54.14 18 54.65 16.92 55.31C15.9 55.97 14.94 56.72 14.04 57.56C13.14 58.34 12.33 59.18 11.61 60.08L3.96 51.26C4.8 50.42 5.91 49.52 7.29 48.56C8.73 47.54 10.41 46.61 12.33 45.77C14.31 44.87 16.47 44.15 18.81 43.61C21.21 43.01 23.76 42.71 26.46 42.71C30.54 42.71 34.02 43.37 36.9 44.69C39.78 45.95 41.97 47.72 43.47 50C45.03 52.28 45.81 54.95 45.81 58.01C45.81 60.11 45.42 61.97 44.64 63.59C43.86 65.21 42.87 66.65 41.67 67.91C40.47 69.11 39.15 70.19 37.71 71.15C36.33 72.11 34.98 72.95 33.66 73.67C31.8 74.63 30.12 75.53 28.62 76.37C27.12 77.15 25.8 77.96 24.66 78.8C23.52 79.58 22.5 80.39 21.6 81.23C20.76 82.07 20.01 83.03 19.35 84.11H46.8V95H3.42ZM101.651 68.63C101.651 73.91 100.631 78.62 98.5908 82.76C96.6108 86.84 93.8508 90.05 90.3108 92.39C86.8308 94.73 82.8708 95.9 78.4308 95.9C73.9908 95.9 70.0008 94.73 66.4608 92.39C62.9808 90.05 60.2208 86.84 58.1808 82.76C56.2008 78.62 55.2108 73.91 55.2108 68.63C55.2108 63.35 56.2008 58.67 58.1808 54.59C60.2208 50.45 62.9808 47.21 66.4608 44.87C70.0008 42.47 73.9908 41.27 78.4308 41.27C82.8708 41.27 86.8308 42.47 90.3108 44.87C93.8508 47.21 96.6108 50.45 98.5908 54.59C100.631 58.67 101.651 63.35 101.651 68.63ZM89.5008 68.63C89.5008 65.39 89.0208 62.57 88.0608 60.17C87.1608 57.71 85.8708 55.79 84.1908 54.41C82.5108 53.03 80.5908 52.34 78.4308 52.34C76.2108 52.34 74.2608 53.03 72.5808 54.41C70.9008 55.79 69.5808 57.71 68.6208 60.17C67.7208 62.57 67.2708 65.39 67.2708 68.63C67.2708 71.87 67.7208 74.69 68.6208 77.09C69.5808 79.49 70.9008 81.38 72.5808 82.76C74.2608 84.14 76.2108 84.83 78.4308 84.83C80.5908 84.83 82.4808 84.14 84.1008 82.76C85.7808 81.38 87.1008 79.49 88.0608 77.09C89.0208 74.63 89.5008 71.81 89.5008 68.63ZM148.384 84.11V95H111.844V84.11H124.624V56.84C124.084 57.56 123.244 58.31 122.104 59.09C120.964 59.81 119.674 60.5 118.234 61.16C116.794 61.82 115.354 62.36 113.914 62.78C112.474 63.2 111.184 63.41 110.044 63.41V52.16C111.124 52.16 112.414 51.83 113.914 51.17C115.474 50.45 117.004 49.61 118.504 48.65C120.064 47.69 121.384 46.76 122.464 45.86C123.604 44.9 124.324 44.15 124.624 43.61H136.954V84.11H148.384ZM153.437 65.84C153.437 69.86 154.397 73.49 156.317 76.73C158.297 79.91 160.967 82.46 164.327 84.38C167.747 86.24 171.527 87.17 175.667 87.17C177.707 87.17 179.567 86.9 181.247 86.36C182.987 85.76 184.517 84.92 185.837 83.84C187.217 82.76 188.297 81.53 189.077 80.15C189.017 83.99 188.417 87.29 187.277 90.05C186.197 92.75 184.667 94.82 182.687 96.26C180.767 97.7 178.457 98.42 175.757 98.42C173.117 98.42 170.627 97.76 168.287 96.44C166.007 95.18 164.147 93.44 162.707 91.22L155.777 98.78C158.117 102.02 160.997 104.51 164.417 106.25C167.837 107.99 171.557 108.86 175.577 108.86C180.617 108.86 184.997 107.48 188.717 104.72C192.437 101.96 195.287 97.91 197.267 92.57C199.307 87.23 200.327 80.69 200.327 72.95C200.327 66.77 199.367 61.52 197.447 57.2C195.527 52.82 192.797 49.46 189.257 47.12C185.777 44.78 181.607 43.61 176.747 43.61C172.367 43.61 168.407 44.6 164.867 46.58C161.327 48.56 158.537 51.23 156.497 54.59C154.457 57.95 153.437 61.7 153.437 65.84ZM176.747 53.78C178.847 53.78 180.797 54.35 182.597 55.49C184.397 56.57 185.837 58.04 186.917 59.9C187.997 61.7 188.537 63.68 188.537 65.84C188.537 68 187.997 69.98 186.917 71.78C185.837 73.52 184.397 74.93 182.597 76.01C180.857 77.03 178.907 77.54 176.747 77.54C174.587 77.54 172.607 77.03 170.807 76.01C169.007 74.93 167.567 73.52 166.487 71.78C165.467 69.98 164.957 68 164.957 65.84C164.957 63.62 165.497 61.61 166.577 59.81C167.657 58.01 169.097 56.57 170.897 55.49C172.697 54.35 174.647 53.78 176.747 53.78Z" fill="url(#paint1_linear_100_6239)"/>
<defs>
<linearGradient id="paint0_linear_100_6239" x1="105" y1="0" x2="105" y2="126" gradientUnits="userSpaceOnUse">
<stop stop-color="#289855"/>
<stop offset="1" stop-color="#15753F"/>
</linearGradient>
<linearGradient id="paint1_linear_100_6239" x1="102" y1="0" x2="102" y2="126" gradientUnits="userSpaceOnUse">
<stop stop-color="#3BB96D"/>
<stop offset="1" stop-color="#279A59"/>
</linearGradient>
</defs>
</svg>
