<svg width="205" height="126" viewBox="0 0 205 126" fill="none" xmlns="http://www.w3.org/2000/svg">
<path d="M6.42 95C6.42 92.3 6.63 89.87 7.05 87.71C7.47 85.55 8.19 83.54 9.21 81.68C10.29 79.82 11.73 78.08 13.53 76.46C15.39 74.78 17.73 73.16 20.55 71.6C23.01 70.28 25.17 69.14 27.03 68.18C28.89 67.16 30.45 66.23 31.71 65.39C33.03 64.55 34.02 63.71 34.68 62.87C35.34 61.97 35.67 60.95 35.67 59.81C35.67 58.61 35.34 57.53 34.68 56.57C34.02 55.55 33.09 54.74 31.89 54.14C30.69 53.54 29.19 53.24 27.39 53.24C25.95 53.24 24.6 53.42 23.34 53.78C22.14 54.14 21 54.65 19.92 55.31C18.9 55.97 17.94 56.72 17.04 57.56C16.14 58.34 15.33 59.18 14.61 60.08L6.96 51.26C7.8 50.42 8.91 49.52 10.29 48.56C11.73 47.54 13.41 46.61 15.33 45.77C17.31 44.87 19.47 44.15 21.81 43.61C24.21 43.01 26.76 42.71 29.46 42.71C33.54 42.71 37.02 43.37 39.9 44.69C42.78 45.95 44.97 47.72 46.47 50C48.03 52.28 48.81 54.95 48.81 58.01C48.81 60.11 48.42 61.97 47.64 63.59C46.86 65.21 45.87 66.65 44.67 67.91C43.47 69.11 42.15 70.19 40.71 71.15C39.33 72.11 37.98 72.95 36.66 73.67C34.8 74.63 33.12 75.53 31.62 76.37C30.12 77.15 28.8 77.96 27.66 78.8C26.52 79.58 25.5 80.39 24.6 81.23C23.76 82.07 23.01 83.03 22.35 84.11H49.8V95H6.42ZM104.651 68.63C104.651 73.91 103.631 78.62 101.591 82.76C99.6108 86.84 96.8508 90.05 93.3108 92.39C89.8308 94.73 85.8708 95.9 81.4308 95.9C76.9908 95.9 73.0008 94.73 69.4608 92.39C65.9808 90.05 63.2208 86.84 61.1808 82.76C59.2008 78.62 58.2108 73.91 58.2108 68.63C58.2108 63.35 59.2008 58.67 61.1808 54.59C63.2208 50.45 65.9808 47.21 69.4608 44.87C73.0008 42.47 76.9908 41.27 81.4308 41.27C85.8708 41.27 89.8308 42.47 93.3108 44.87C96.8508 47.21 99.6108 50.45 101.591 54.59C103.631 58.67 104.651 63.35 104.651 68.63ZM92.5008 68.63C92.5008 65.39 92.0208 62.57 91.0608 60.17C90.1608 57.71 88.8708 55.79 87.1908 54.41C85.5108 53.03 83.5908 52.34 81.4308 52.34C79.2108 52.34 77.2608 53.03 75.5808 54.41C73.9008 55.79 72.5808 57.71 71.6208 60.17C70.7208 62.57 70.2708 65.39 70.2708 68.63C70.2708 71.87 70.7208 74.69 71.6208 77.09C72.5808 79.49 73.9008 81.38 75.5808 82.76C77.2608 84.14 79.2108 84.83 81.4308 84.83C83.5908 84.83 85.4808 84.14 87.1008 82.76C88.7808 81.38 90.1008 79.49 91.0608 77.09C92.0208 74.63 92.5008 71.81 92.5008 68.63ZM112.504 95C112.504 92.3 112.714 89.87 113.134 87.71C113.554 85.55 114.274 83.54 115.294 81.68C116.374 79.82 117.814 78.08 119.614 76.46C121.474 74.78 123.814 73.16 126.634 71.6C129.094 70.28 131.254 69.14 133.114 68.18C134.974 67.16 136.534 66.23 137.794 65.39C139.114 64.55 140.104 63.71 140.764 62.87C141.424 61.97 141.754 60.95 141.754 59.81C141.754 58.61 141.424 57.53 140.764 56.57C140.104 55.55 139.174 54.74 137.974 54.14C136.774 53.54 135.274 53.24 133.474 53.24C132.034 53.24 130.684 53.42 129.424 53.78C128.224 54.14 127.084 54.65 126.004 55.31C124.984 55.97 124.024 56.72 123.124 57.56C122.224 58.34 121.414 59.18 120.694 60.08L113.044 51.26C113.884 50.42 114.994 49.52 116.374 48.56C117.814 47.54 119.494 46.61 121.414 45.77C123.394 44.87 125.554 44.15 127.894 43.61C130.294 43.01 132.844 42.71 135.544 42.71C139.624 42.71 143.104 43.37 145.984 44.69C148.864 45.95 151.054 47.72 152.554 50C154.114 52.28 154.894 54.95 154.894 58.01C154.894 60.11 154.504 61.97 153.724 63.59C152.944 65.21 151.954 66.65 150.754 67.91C149.554 69.11 148.234 70.19 146.794 71.15C145.414 72.11 144.064 72.95 142.744 73.67C140.884 74.63 139.204 75.53 137.704 76.37C136.204 77.15 134.884 77.96 133.744 78.8C132.604 79.58 131.584 80.39 130.684 81.23C129.844 82.07 129.094 83.03 128.434 84.11H155.884V95H112.504ZM202.185 84.11V95H165.645V84.11H178.425V56.84C177.885 57.56 177.045 58.31 175.905 59.09C174.765 59.81 173.475 60.5 172.035 61.16C170.595 61.82 169.155 62.36 167.715 62.78C166.275 63.2 164.985 63.41 163.845 63.41V52.16C164.925 52.16 166.215 51.83 167.715 51.17C169.275 50.45 170.805 49.61 172.305 48.65C173.865 47.69 175.185 46.76 176.265 45.86C177.405 44.9 178.125 44.15 178.425 43.61H190.755V84.11H202.185Z" fill="url(#paint0_linear_100_6229)"/>
<path d="M3.42 95C3.42 92.3 3.63 89.87 4.05 87.71C4.47 85.55 5.19 83.54 6.21 81.68C7.29 79.82 8.73 78.08 10.53 76.46C12.39 74.78 14.73 73.16 17.55 71.6C20.01 70.28 22.17 69.14 24.03 68.18C25.89 67.16 27.45 66.23 28.71 65.39C30.03 64.55 31.02 63.71 31.68 62.87C32.34 61.97 32.67 60.95 32.67 59.81C32.67 58.61 32.34 57.53 31.68 56.57C31.02 55.55 30.09 54.74 28.89 54.14C27.69 53.54 26.19 53.24 24.39 53.24C22.95 53.24 21.6 53.42 20.34 53.78C19.14 54.14 18 54.65 16.92 55.31C15.9 55.97 14.94 56.72 14.04 57.56C13.14 58.34 12.33 59.18 11.61 60.08L3.96 51.26C4.8 50.42 5.91 49.52 7.29 48.56C8.73 47.54 10.41 46.61 12.33 45.77C14.31 44.87 16.47 44.15 18.81 43.61C21.21 43.01 23.76 42.71 26.46 42.71C30.54 42.71 34.02 43.37 36.9 44.69C39.78 45.95 41.97 47.72 43.47 50C45.03 52.28 45.81 54.95 45.81 58.01C45.81 60.11 45.42 61.97 44.64 63.59C43.86 65.21 42.87 66.65 41.67 67.91C40.47 69.11 39.15 70.19 37.71 71.15C36.33 72.11 34.98 72.95 33.66 73.67C31.8 74.63 30.12 75.53 28.62 76.37C27.12 77.15 25.8 77.96 24.66 78.8C23.52 79.58 22.5 80.39 21.6 81.23C20.76 82.07 20.01 83.03 19.35 84.11H46.8V95H3.42ZM101.651 68.63C101.651 73.91 100.631 78.62 98.5908 82.76C96.6108 86.84 93.8508 90.05 90.3108 92.39C86.8308 94.73 82.8708 95.9 78.4308 95.9C73.9908 95.9 70.0008 94.73 66.4608 92.39C62.9808 90.05 60.2208 86.84 58.1808 82.76C56.2008 78.62 55.2108 73.91 55.2108 68.63C55.2108 63.35 56.2008 58.67 58.1808 54.59C60.2208 50.45 62.9808 47.21 66.4608 44.87C70.0008 42.47 73.9908 41.27 78.4308 41.27C82.8708 41.27 86.8308 42.47 90.3108 44.87C93.8508 47.21 96.6108 50.45 98.5908 54.59C100.631 58.67 101.651 63.35 101.651 68.63ZM89.5008 68.63C89.5008 65.39 89.0208 62.57 88.0608 60.17C87.1608 57.71 85.8708 55.79 84.1908 54.41C82.5108 53.03 80.5908 52.34 78.4308 52.34C76.2108 52.34 74.2608 53.03 72.5808 54.41C70.9008 55.79 69.5808 57.71 68.6208 60.17C67.7208 62.57 67.2708 65.39 67.2708 68.63C67.2708 71.87 67.7208 74.69 68.6208 77.09C69.5808 79.49 70.9008 81.38 72.5808 82.76C74.2608 84.14 76.2108 84.83 78.4308 84.83C80.5908 84.83 82.4808 84.14 84.1008 82.76C85.7808 81.38 87.1008 79.49 88.0608 77.09C89.0208 74.63 89.5008 71.81 89.5008 68.63ZM109.504 95C109.504 92.3 109.714 89.87 110.134 87.71C110.554 85.55 111.274 83.54 112.294 81.68C113.374 79.82 114.814 78.08 116.614 76.46C118.474 74.78 120.814 73.16 123.634 71.6C126.094 70.28 128.254 69.14 130.114 68.18C131.974 67.16 133.534 66.23 134.794 65.39C136.114 64.55 137.104 63.71 137.764 62.87C138.424 61.97 138.754 60.95 138.754 59.81C138.754 58.61 138.424 57.53 137.764 56.57C137.104 55.55 136.174 54.74 134.974 54.14C133.774 53.54 132.274 53.24 130.474 53.24C129.034 53.24 127.684 53.42 126.424 53.78C125.224 54.14 124.084 54.65 123.004 55.31C121.984 55.97 121.024 56.72 120.124 57.56C119.224 58.34 118.414 59.18 117.694 60.08L110.044 51.26C110.884 50.42 111.994 49.52 113.374 48.56C114.814 47.54 116.494 46.61 118.414 45.77C120.394 44.87 122.554 44.15 124.894 43.61C127.294 43.01 129.844 42.71 132.544 42.71C136.624 42.71 140.104 43.37 142.984 44.69C145.864 45.95 148.054 47.72 149.554 50C151.114 52.28 151.894 54.95 151.894 58.01C151.894 60.11 151.504 61.97 150.724 63.59C149.944 65.21 148.954 66.65 147.754 67.91C146.554 69.11 145.234 70.19 143.794 71.15C142.414 72.11 141.064 72.95 139.744 73.67C137.884 74.63 136.204 75.53 134.704 76.37C133.204 77.15 131.884 77.96 130.744 78.8C129.604 79.58 128.584 80.39 127.684 81.23C126.844 82.07 126.094 83.03 125.434 84.11H152.884V95H109.504ZM199.185 84.11V95H162.645V84.11H175.425V56.84C174.885 57.56 174.045 58.31 172.905 59.09C171.765 59.81 170.475 60.5 169.035 61.16C167.595 61.82 166.155 62.36 164.715 62.78C163.275 63.2 161.985 63.41 160.845 63.41V52.16C161.925 52.16 163.215 51.83 164.715 51.17C166.275 50.45 167.805 49.61 169.305 48.65C170.865 47.69 172.185 46.76 173.265 45.86C174.405 44.9 175.125 44.15 175.425 43.61H187.755V84.11H199.185Z" fill="url(#paint1_linear_100_6229)"/>
<defs>
<linearGradient id="paint0_linear_100_6229" x1="104" y1="0" x2="104" y2="126" gradientUnits="userSpaceOnUse">
<stop stop-color="#289855"/>
<stop offset="1" stop-color="#15753F"/>
</linearGradient>
<linearGradient id="paint1_linear_100_6229" x1="101" y1="0" x2="101" y2="126" gradientUnits="userSpaceOnUse">
<stop stop-color="#3BB96D"/>
<stop offset="1" stop-color="#279A59"/>
</linearGradient>
</defs>
</svg>
