<svg width="70" height="30" viewBox="0 0 70 30" fill="none" xmlns="http://www.w3.org/2000/svg">
<circle cx="15" cy="15" r="14.5" stroke="url(#paint0_linear_100_6329)"/>
<path fill-rule="evenodd" clip-rule="evenodd" d="M17.1031 9.10531C16.7124 8.71561 16.08 8.71601 15.6898 9.10619L10.7031 14.0929C10.3126 14.4834 10.3126 15.1165 10.7031 15.5071L15.6898 20.4937C16.08 20.8839 16.7124 20.8843 17.1031 20.4946L17.2908 20.3074C17.6823 19.9169 17.6826 19.2828 17.2914 18.892L13.904 15.5074C13.5131 15.1168 13.5131 14.4832 13.904 14.0926L17.2914 10.708C17.6826 10.3171 17.6823 9.68306 17.2908 9.29256L17.1031 9.10531Z" fill="url(#paint1_linear_100_6329)"/>
<circle cx="15" cy="15" r="15" transform="matrix(-1 0 0 1 70 0)" fill="url(#paint2_linear_100_6329)"/>
<path fill-rule="evenodd" clip-rule="evenodd" d="M52.8969 9.10531C53.2876 8.71561 53.92 8.71601 54.3102 9.10619L59.2969 14.0929C59.6874 14.4834 59.6874 15.1165 59.2969 15.5071L54.3102 20.4937C53.92 20.8839 53.2876 20.8843 52.8969 20.4946L52.7092 20.3074C52.3177 19.9169 52.3174 19.2828 52.7086 18.892L56.096 15.5074C56.4869 15.1168 56.4869 14.4832 56.096 14.0926L52.7086 10.708C52.3174 10.3171 52.3177 9.68306 52.7092 9.29256L52.8969 9.10531Z" fill="white"/>
<defs>
<linearGradient id="paint0_linear_100_6329" x1="15" y1="0" x2="15" y2="30" gradientUnits="userSpaceOnUse">
<stop stop-color="#3BB96D"/>
<stop offset="1" stop-color="#279A59"/>
</linearGradient>
<linearGradient id="paint1_linear_100_6329" x1="13.998" y1="8.39996" x2="13.998" y2="21.2" gradientUnits="userSpaceOnUse">
<stop stop-color="#3BB96D"/>
<stop offset="1" stop-color="#279A59"/>
</linearGradient>
<linearGradient id="paint2_linear_100_6329" x1="15" y1="0" x2="15" y2="30" gradientUnits="userSpaceOnUse">
<stop stop-color="#3BB96D"/>
<stop offset="1" stop-color="#279A59"/>
</linearGradient>
</defs>
</svg>
